# xmcd
# 
# Track frame offsets:
#     150
#     9741
#     25532
#     42415
#     58671
#     80789
#     100450
#     115735
#     134706
#     148616
#     165422
#     184460
# 
# Disc length: 2785
# 
# Revision: 0
# Processed by: cddbd v1.5.2PL0 Copyright (c) Steve Scherf et al.
# Submitted via: fre:ac v1.0.31
# 
DISCID=a90adf0c
DTITLE=シネマ - GOLDEN BEST - Disc-1
DYEAR=0
DGENRE=
TTITLE0=スイッチ・オン [LET’S SHOW BEGIN]
TTITLE1=クリームソーダ・ベイビー
TTITLE2=君のプリズナー [I WANNA BE YOUR PRISONER]
TTITLE3=愛しのクリスティーン
TTITLE4=夜のCafe
TTITLE5=HOTEL
TTITLE6=グッバイ・ハートブレイク
TTITLE7=バラの女
TTITLE8=電話・電話・電話
TTITLE9=雨のチャイナタウン
TTITLE10=おかしなレディ・キラー
TTITLE11=アナベラ
EXTD=
EXTT0=
EXTT1=
EXTT2=
EXTT3=
EXTT4=
EXTT5=
EXTT6=
EXTT7=
EXTT8=
EXTT9=
EXTT10=
EXTT11=
PLAYORDER=
